<mxfile host="app.diagrams.net" agent="Mozilla/5.0 (Windows NT 10.0; Win64; x64) AppleWebKit/537.36 (KHTML, like Gecko) Chrome/129.0.0.0 Safari/537.36" version="24.7.17">
  <diagram name="Page-1" id="cFMf2zeaD_1071EAkis6">
    <mxGraphModel dx="1313" dy="816" grid="1" gridSize="10" guides="1" tooltips="1" connect="1" arrows="1" fold="1" page="1" pageScale="1" pageWidth="1200" pageHeight="1920" math="0" shadow="0">
      <root>
        <mxCell id="0" />
        <mxCell id="1" parent="0" />
        <mxCell id="-821EgII8_-z-8Wr9Ew4-10" style="edgeStyle=orthogonalEdgeStyle;rounded=0;orthogonalLoop=1;jettySize=auto;html=1;exitX=0.5;exitY=1;exitDx=0;exitDy=0;entryX=0.5;entryY=0;entryDx=0;entryDy=0;" edge="1" parent="1" source="-821EgII8_-z-8Wr9Ew4-5" target="-821EgII8_-z-8Wr9Ew4-9">
          <mxGeometry relative="1" as="geometry" />
        </mxCell>
        <mxCell id="-821EgII8_-z-8Wr9Ew4-5" value="User registration" style="ellipse;whiteSpace=wrap;html=1;" vertex="1" parent="1">
          <mxGeometry x="380" y="120" width="120" height="80" as="geometry" />
        </mxCell>
        <mxCell id="-821EgII8_-z-8Wr9Ew4-8" value="User Onboarding (Registration)" style="text;html=1;align=center;verticalAlign=middle;resizable=0;points=[];autosize=1;strokeColor=none;fillColor=none;fontSize=25;" vertex="1" parent="1">
          <mxGeometry x="275" y="50" width="370" height="40" as="geometry" />
        </mxCell>
        <mxCell id="-821EgII8_-z-8Wr9Ew4-14" style="edgeStyle=orthogonalEdgeStyle;rounded=0;orthogonalLoop=1;jettySize=auto;html=1;entryX=0.5;entryY=0;entryDx=0;entryDy=0;" edge="1" parent="1" source="-821EgII8_-z-8Wr9Ew4-9" target="-821EgII8_-z-8Wr9Ew4-13">
          <mxGeometry relative="1" as="geometry" />
        </mxCell>
        <mxCell id="-821EgII8_-z-8Wr9Ew4-9" value="Registering user (Personal Details)&lt;div&gt;1st - endpoint&lt;/div&gt;" style="rounded=0;whiteSpace=wrap;html=1;" vertex="1" parent="1">
          <mxGeometry x="380" y="260" width="120" height="60" as="geometry" />
        </mxCell>
        <mxCell id="-821EgII8_-z-8Wr9Ew4-11" value="Storing the user&lt;div&gt;details&lt;/div&gt;" style="shape=cylinder3;whiteSpace=wrap;html=1;boundedLbl=1;backgroundOutline=1;size=15;" vertex="1" parent="1">
          <mxGeometry x="700" y="250" width="70" height="80" as="geometry" />
        </mxCell>
        <mxCell id="-821EgII8_-z-8Wr9Ew4-12" style="edgeStyle=orthogonalEdgeStyle;rounded=0;orthogonalLoop=1;jettySize=auto;html=1;exitX=1;exitY=0.5;exitDx=0;exitDy=0;entryX=0;entryY=0.5;entryDx=0;entryDy=0;entryPerimeter=0;" edge="1" parent="1" source="-821EgII8_-z-8Wr9Ew4-9" target="-821EgII8_-z-8Wr9Ew4-11">
          <mxGeometry relative="1" as="geometry" />
        </mxCell>
        <mxCell id="-821EgII8_-z-8Wr9Ew4-20" value="" style="edgeStyle=orthogonalEdgeStyle;rounded=0;orthogonalLoop=1;jettySize=auto;html=1;" edge="1" parent="1" source="-821EgII8_-z-8Wr9Ew4-13" target="-821EgII8_-z-8Wr9Ew4-19">
          <mxGeometry relative="1" as="geometry" />
        </mxCell>
        <mxCell id="-821EgII8_-z-8Wr9Ew4-13" value="Adding user address details&lt;div&gt;2nd - endpoint&lt;/div&gt;" style="rounded=0;whiteSpace=wrap;html=1;" vertex="1" parent="1">
          <mxGeometry x="380" y="360" width="120" height="60" as="geometry" />
        </mxCell>
        <mxCell id="-821EgII8_-z-8Wr9Ew4-15" value="&lt;span style=&quot;font-size: 6px;&quot;&gt;Valid user details ( as per the validations )&lt;/span&gt;" style="rhombus;whiteSpace=wrap;html=1;" vertex="1" parent="1">
          <mxGeometry x="550" y="245" width="95" height="90" as="geometry" />
        </mxCell>
        <mxCell id="-821EgII8_-z-8Wr9Ew4-16" value="&lt;div&gt;&lt;font style=&quot;font-size: 9px;&quot;&gt;Address Entity&lt;br&gt;&lt;/font&gt;&lt;/div&gt;&lt;font style=&quot;font-size: 9px;&quot;&gt;Storing the address details&amp;nbsp;&lt;/font&gt;" style="shape=cylinder3;whiteSpace=wrap;html=1;boundedLbl=1;backgroundOutline=1;size=15;" vertex="1" parent="1">
          <mxGeometry x="700" y="350" width="70" height="80" as="geometry" />
        </mxCell>
        <mxCell id="-821EgII8_-z-8Wr9Ew4-17" style="edgeStyle=orthogonalEdgeStyle;rounded=0;orthogonalLoop=1;jettySize=auto;html=1;entryX=0;entryY=0.5;entryDx=0;entryDy=0;entryPerimeter=0;" edge="1" parent="1" source="-821EgII8_-z-8Wr9Ew4-13" target="-821EgII8_-z-8Wr9Ew4-16">
          <mxGeometry relative="1" as="geometry" />
        </mxCell>
        <mxCell id="-821EgII8_-z-8Wr9Ew4-19" value="User registration&amp;nbsp;&lt;div&gt;Successful&lt;/div&gt;" style="ellipse;whiteSpace=wrap;html=1;" vertex="1" parent="1">
          <mxGeometry x="380" y="470" width="120" height="80" as="geometry" />
        </mxCell>
      </root>
    </mxGraphModel>
  </diagram>
</mxfile>
